#!OML:ASF Y:\EmotionMaleHayes\Project 1\Capture day 1\Session 1\Male1.ASF
:FULLY-SPECIFIED
:DEGREES
99
root -30.0759 17.0569 0.846098 48.1523 86.1272 48.0101
lowerback 4.20602 1.3884 -5.90057
upperback -0.460527 1.54333 -0.453696
thorax -2.98202 0.865151 2.73396
lowerneck -20.1895 3.49976 4.39402
upperneck 25.7156 4.2833 -1.61455
head 11.9322 2.2517 -0.628346
rclavicle -7.05375e-015 -1.49089e-015
rhumerus -35.0888 8.17289 -91.8834
rradius 30.4377
rwrist 5.05141
rhand -9.83991 -30.9629
rfingers 7.12502
rthumb 16.1378 -60.3111
lclavicle -7.05375e-015 -1.49089e-015
lhumerus -32.0624 -7.77009 92.2715
lradius 21.7581
lwrist -20.6885
lhand -12.978 -27.1206
lfingers 7.12502
lthumb 13.1144 2.44706
rfemur 8.70392 -2.80745 10.0887
rtibia 2.45286
rfoot -14.8173 -3.33223
rtoes 7.48353
lfemur 11.6071 -2.62273 -18.1473
ltibia -3.09109
lfoot -10.4631 11.6657
ltoes -18.2995
100
root -30.0779 17.055 0.847007 48.7921 86.0927 48.633
lowerback 4.18675 1.38202 -5.97429
upperback -0.47113 1.53196 -0.463966
thorax -2.98295 0.860963 2.76566
lowerneck -20.109 3.51186 4.43758
upperneck 25.6609 4.30287 -1.66347
head 11.8981 2.25879 -0.65223
rclavicle 3.71013e-015 1.56046e-014
rhumerus -34.9772 7.9144 -91.7701
rradius 30.1417
rwrist 5.45951
rhand -10.0367 -30.4515
rfingers 7.12502
rthumb 15.9483 -59.8149
lclavicle 3.71013e-015 1.56046e-014
lhumerus -32.05 -7.74998 92.2672
lradius 21.7228
lwrist -20.7372
lhand -12.9831 -27.1594
lfingers 7.12502
lthumb 13.1095 2.40851
rfemur 8.66607 -2.81806 10.0161
rtibia 2.46422
rfoot -14.8126 -3.31316
rtoes 7.38791
lfemur 11.4768 -2.31894 -18.0932
ltibia -2.90776
lfoot -10.5205 11.3194
ltoes -17.9262
101
root -30.0793 17.0528 0.846222 48.9753 86.0984 48.7891
lowerback 4.16467 1.38922 -5.95513
upperback -0.4871 1.54316 -0.480782
thorax -2.98711 0.866565 2.73696
lowerneck -20.0539 3.49618 4.46567
upperneck 25.6182 4.27375 -1.66819
head 11.8705 2.24821 -0.664529
rclavicle 8.13464e-015 -1.60022e-014
rhumerus -34.9569 7.67579 -91.6964
rradius 30.0147
rwrist 5.75444
rhand -10.1332 -30.2713
rfingers 7.12502
rthumb 15.8554 -59.6421
lclavicle 8.13464e-015 -1.60022e-014
lhumerus -32.0341 -7.75971 92.2348
lradius 21.6624
lwrist -20.8047
lhand -13.0318 -27.3375
lfingers 7.12502
lthumb 13.0625 2.23342
rfemur 8.64384 -2.76533 10.0282
rtibia 2.43656
rfoot -14.7921 -3.36949
rtoes 7.25413
lfemur 11.4611 -2.39076 -18.1232
ltibia -2.95726
lfoot -10.4755 11.4165
ltoes -18.1476
102
root -30.0785 17.053 0.845634 49.5101 86.0675 49.3121
lowerback 4.10841 1.40154 -5.99066
upperback -0.471274 1.56215 -0.504177
thorax -2.94111 0.875009 2.73274
lowerneck -20.0228 3.47509 4.44482
upperneck 25.5583 4.23883 -1.63388
head 11.8385 2.23457 -0.654862
rclavicle -3.47718e-015 8.64713e-015
rhumerus -34.9779 7.76341 -91.7471
rradius 30.1618
rwrist 5.61678
rhand -10.1161 -30.5996
rfingers 7.12502
rthumb 15.8718 -59.9691
lclavicle -3.47718e-015 8.64713e-015
lhumerus -31.9815 -7.817 92.2226
lradius 21.6403
lwrist -20.8428
lhand -13.5482 -27.2909
lfingers 7.12502
lthumb 12.5647 2.31131
rfemur 8.633 -2.80412 9.95986
rtibia 2.45684
rfoot -14.7642 -3.32761
rtoes 7.26792
lfemur 11.4733 -2.5439 -18.237
ltibia -3.01112
lfoot -10.4492 11.5874
ltoes -18.5309
103
root -30.0783 17.0549 0.845139 51.5859 85.9025 51.3834
lowerback 4.08531 1.40419 -6.22241
upperback -0.459566 1.55591 -0.556202
thorax -2.92063 0.874892 2.8096
lowerneck -20.041 3.48013 4.42685
upperneck 25.5383 4.25064 -1.63833
head 11.8343 2.2368 -0.651501
rclavicle 9.79946e-016 1.02374e-014
rhumerus -34.9765 7.91173 -91.7849
rradius 30.2403
rwrist 5.49677
rhand -10.2316 -30.653
rfingers 7.12502
rthumb 15.7606 -60.0313
lclavicle 9.79946e-016 1.02374e-014
lhumerus -31.9734 -7.94672 92.2793
lradius 21.6936
lwrist -20.6862
lhand -13.9008 -27.0644
lfingers 7.12502
lthumb 12.2247 2.55835
rfemur 8.60178 -2.96155 9.624
rtibia 2.53446
rfoot -14.7725 -3.14133
rtoes 7.44562
lfemur 11.546 -2.92397 -18.6535
ltibia -3.14403
lfoot -10.467 12.0047
ltoes -18.8039
104
root -30.0804 17.0566 0.844982 52.0411 85.8591 51.8115
lowerback 4.09866 1.39381 -6.27971
upperback -0.476737 1.53751 -0.561611
thorax -2.94572 0.867746 2.83679
lowerneck -20.0865 3.49695 4.40386
upperneck 25.5628 4.27568 -1.62196
head 11.8527 2.24746 -0.636664
rclavicle -2.02046e-015 1.46107e-014
rhumerus -35.0119 7.97716 -91.7958
rradius 30.2798
rwrist 5.49395
rhand -10.2838 -30.6174
rfingers 7.12502
rthumb 15.7103 -59.9997
lclavicle -2.02046e-015 1.46107e-014
lhumerus -32.0004 -7.97646 92.3055
lradius 21.739
lwrist -20.5671
lhand -13.2754 -27.0452
lfingers 7.12502
lthumb 12.8277 2.54067
rfemur 8.5534 -2.9781 9.55364
rtibia 2.55738
rfoot -14.7986 -3.15886
rtoes 7.28128
lfemur 11.5965 -3.2507 -18.8375
ltibia -3.27713
lfoot -10.4697 12.3435
ltoes -18.9133
105
root -30.0823 17.0574 0.845694 51.4012 85.9335 51.1454
lowerback 4.0807 1.37985 -6.19243
upperback -0.487622 1.52442 -0.534066
thorax -2.94392 0.86 2.8177
lowerneck -20.1575 3.53148 4.49661
upperneck 25.7198 4.3433 -1.76995
head 11.9363 2.26883 -0.694036
rclavicle 9.90973e-015 -7.35503e-015
rhumerus -35.0259 7.8994 -91.7487
rradius 30.249
rwrist 5.55107
rhand -10.4188 -30.3186
rfingers 7.12502
rthumb 15.5803 -59.7111
lclavicle 9.90973e-015 -7.35503e-015
lhumerus -31.9853 -7.8381 92.2778
lradius 21.703
lwrist -20.6777
lhand -12.9113 -27.2136
lfingers 7.12502
lthumb 13.1787 2.34991
rfemur 8.53404 -2.87811 9.71777
rtibia 2.51992
rfoot -14.7836 -3.34561
rtoes 6.61635
lfemur 11.4352 -2.86939 -18.5806
ltibia -3.05827
lfoot -10.4439 11.8894
ltoes -18.7976
106
root -30.0833 17.0578 0.84563 50.9356 85.9676 50.6885
lowerback 4.08226 1.38022 -6.14509
upperback -0.479668 1.52767 -0.516854
thorax -2.93598 0.860486 2.80891
lowerneck -20.1642 3.51811 4.45978
upperneck 25.7069 4.3231 -1.72955
head 11.9299 2.26113 -0.676139
rclavicle 1.59338e-015 -2.29596e-014
rhumerus -35.0704 8.0768 -91.8095
rradius 30.448
rwrist 5.23159
rhand -10.3916 -30.5341
rfingers 7.12502
rthumb 15.6065 -59.9245
lclavicle 1.59338e-015 -2.29596e-014
lhumerus -31.941 -7.74207 92.271
lradius 21.6454
lwrist -20.7429
lhand -13.0691 -27.3166
lfingers 7.12502
lthumb 13.0266 2.25665
rfemur 8.52549 -2.86183 9.78973
rtibia 2.53307
rfoot -14.7222 -3.35504
rtoes 6.20094
lfemur 11.2667 -2.13449 -18.2541
ltibia -2.76454
lfoot -10.4251 11.121
ltoes -18.5593
107
root -30.0848 17.0588 0.844996 49.9454 86.0162 49.7117
lowerback 4.1048 1.39595 -6.03399
upperback -0.477619 1.55257 -0.50694
thorax -2.94596 0.871227 2.75478
lowerneck -20.1576 3.51146 4.44716
upperneck 25.7028 4.31537 -1.71999
head 11.9261 2.25779 -0.67185
rclavicle 4.87488e-015 6.85807e-015
rhumerus -35.0935 8.26611 -91.9157
rradius 30.6461
rwrist 4.9855
rhand -10.1643 -31.1163
rfingers 7.12502
rthumb 15.8254 -60.4895
lclavicle 4.87488e-015 6.85807e-015
lhumerus -31.9287 -7.83439 92.2868
lradius 21.6229
lwrist -20.6801
lhand -12.9947 -27.3363
lfingers 7.12502
lthumb 13.0983 2.23241
rfemur 8.49717 -2.88002 9.8709
rtibia 2.58301
rfoot -14.6976 -3.2266
rtoes 6.77913
lfemur 11.3371 -2.1786 -18.1636
ltibia -2.87977
lfoot -10.4219 11.2132
ltoes -18.5239
108
root -30.0864 17.0595 0.844971 50.1891 86.0252 49.9672
lowerback 4.08348 1.3942 -6.01664
upperback -0.448679 1.55359 -0.52032
thorax -2.90311 0.869675 2.73207
lowerneck -20.1716 3.51521 4.49552
upperneck 25.701 4.31681 -1.76578
head 11.9307 2.25684 -0.696589
rclavicle 1.21445e-014 3.37934e-015
rhumerus -34.9634 8.03173 -91.8314
rradius 30.4276
rwrist 5.41217
rhand -10.2055 -30.7931
rfingers 7.12502
rthumb 15.7858 -60.1694
lclavicle 1.21445e-014 3.37934e-015
lhumerus -31.9265 -7.85318 92.2608
lradius 21.6634
lwrist -20.702
lhand -12.8978 -27.3669
lfingers 7.12502
lthumb 13.1917 2.19576
rfemur 8.51285 -2.83733 9.86417
rtibia 2.56851
rfoot -14.7952 -3.23677
rtoes 7.27992
lfemur 11.5109 -2.92887 -18.4264
ltibia -3.21675
lfoot -10.3892 11.9732
ltoes -18.5282
109
root -30.0884 17.0596 0.845447 50.0283 86.0621 49.809
lowerback 4.08314 1.40059 -6.01057
upperback -0.433455 1.56343 -0.49564
thorax -2.88858 0.873862 2.75377
lowerneck -20.1984 3.51385 4.53349
upperneck 25.7215 4.32109 -1.83178
head 11.9469 2.25367 -0.726352
rclavicle 1.92278e-014 -1.26228e-014
rhumerus -34.8987 7.82149 -91.7082
rradius 30.2688
rwrist 5.71031
rhand -10.2996 -30.3944
rfingers 7.12502
rthumb 15.6951 -59.7779
lclavicle 1.92278e-014 -1.26228e-014
lhumerus -31.9079 -7.81904 92.2712
lradius 21.6926
lwrist -20.749
lhand -12.8899 -27.3112
lfingers 7.12502
lthumb 13.1993 2.25096
rfemur 8.53199 -2.70238 9.95622
rtibia 2.52553
rfoot -14.8886 -3.43165
rtoes 6.84705
lfemur 11.5649 -3.24612 -18.4867
ltibia -3.33528
lfoot -10.3475 12.276
ltoes -18.5786
